<?xml version="1.0" encoding="UTF-8" standalone="no"?>
<!-- Created with Inkscape (http://www.inkscape.org/) -->

<svg
   xmlns:dc="http://purl.org/dc/elements/1.1/"
   xmlns:cc="http://creativecommons.org/ns#"
   xmlns:rdf="http://www.w3.org/1999/02/22-rdf-syntax-ns#"
   xmlns:svg="http://www.w3.org/2000/svg"
   xmlns="http://www.w3.org/2000/svg"
   xmlns:sodipodi="http://sodipodi.sourceforge.net/DTD/sodipodi-0.dtd"
   xmlns:inkscape="http://www.inkscape.org/namespaces/inkscape"
   width="210mm"
   height="297mm"
   viewBox="0 0 210 297"
   version="1.1"
   id="svg8"
   inkscape:version="0.92.4 (5da689c313, 2019-01-14)"
   sodipodi:docname="gato-triste.svg">
  <defs
     id="defs2" />
  <sodipodi:namedview
     id="base"
     pagecolor="#ffffff"
     bordercolor="#666666"
     borderopacity="1.0"
     inkscape:pageopacity="0.0"
     inkscape:pageshadow="2"
     inkscape:zoom="0.49497475"
     inkscape:cx="400"
     inkscape:cy="560"
     inkscape:document-units="mm"
     inkscape:current-layer="g70"
     showgrid="false"
     inkscape:window-width="1366"
     inkscape:window-height="689"
     inkscape:window-x="0"
     inkscape:window-y="26"
     inkscape:window-maximized="1"
     showguides="false" />
  <metadata
     id="metadata5">
    <rdf:RDF>
      <cc:Work
         rdf:about="">
        <dc:format>image/svg+xml</dc:format>
        <dc:type
           rdf:resource="http://purl.org/dc/dcmitype/StillImage" />
        <dc:title></dc:title>
      </cc:Work>
    </rdf:RDF>
  </metadata>
  <g
     inkscape:label="Capa 1"
     inkscape:groupmode="layer"
     id="layer1">
    <g
       id="g112">
      <g
         id="g70"
         transform="translate(-2.6726953,5.3964357)">
        <path
           style="fill:#aa4400;stroke-width:0.3205407"
           id="path10"
           sodipodi:type="arc"
           sodipodi:cx="106.66488"
           sodipodi:cy="130.5656"
           sodipodi:rx="71.815483"
           sodipodi:ry="78.743935"
           sodipodi:start="5.2787308"
           sodipodi:end="4.2339908"
           d="m 145.19738,64.116 a 71.815483,78.743935 0 0 1 29.9651,90.10764 71.815483,78.743935 0 0 1 -71.65444,55.00978 A 71.815483,78.743935 0 0 1 36.536929,147.53563 71.815483,78.743935 0 0 1 73.604063,60.661971 L 106.66488,130.5656 Z" />
        <path
           style="fill:#ccff00;stroke-width:0.33331668"
           id="path31"
           sodipodi:type="arc"
           sodipodi:cx="75.595238"
           sodipodi:cy="140.13988"
           sodipodi:rx="9.0714283"
           sodipodi:ry="18.520834"
           sodipodi:start="5.2787309"
           sodipodi:end="5.1649362"
           d="m 80.462501,124.51071 a 9.0714283,18.520834 0 0 1 2.923188,25.11791 9.0714283,18.520834 0 0 1 -12.214518,6.68023 9.0714283,18.520834 0 0 1 -3.618068,-24.73786 9.0714283,18.520834 0 0 1 12.008687,-8.08757"
           sodipodi:open="true" />
        <path
           style="fill:#ccff00;stroke-width:0.33331668"
           id="path31-3"
           sodipodi:type="arc"
           sodipodi:cx="139.01952"
           sodipodi:cy="140.66901"
           sodipodi:rx="9.0714283"
           sodipodi:ry="18.520834"
           sodipodi:start="5.2787309"
           sodipodi:end="5.1649362"
           d="m 143.88678,125.03984 a 9.0714283,18.520834 0 0 1 2.92319,25.11791 9.0714283,18.520834 0 0 1 -12.21452,6.68023 9.0714283,18.520834 0 0 1 -3.61807,-24.73787 9.0714283,18.520834 0 0 1 12.00869,-8.08756"
           sodipodi:open="true" />
        <path
           style="fill:#1a1a1a;stroke-width:0.25315434"
           id="path48"
           sodipodi:type="arc"
           sodipodi:cx="-76.374992"
           sodipodi:cy="139.85609"
           sodipodi:rx="3.8409038"
           sodipodi:ry="18.205282"
           sodipodi:start="5.2787309"
           sodipodi:end="5.1649354"
           sodipodi:open="true"
           d="m -74.31416,124.49321 a 3.8409038,18.205282 0 0 1 1.237698,24.68995 3.8409038,18.205282 0 0 1 -5.171709,6.56643 3.8409038,18.205282 0 0 1 -1.531917,-24.31638 3.8409038,18.205282 0 0 1 5.084558,-7.94979"
           transform="scale(-1,1)" />
        <path
           style="fill:#1a1a1a;stroke-width:0.25315434"
           id="path48-6"
           sodipodi:type="arc"
           sodipodi:cx="-138.8683"
           sodipodi:cy="140.36707"
           sodipodi:rx="3.8409038"
           sodipodi:ry="18.205282"
           sodipodi:start="5.2787309"
           sodipodi:end="5.1649354"
           sodipodi:open="true"
           d="m -136.80747,125.00419 a 3.8409038,18.205282 0 0 1 1.2377,24.68995 3.8409038,18.205282 0 0 1 -5.17171,6.56642 3.8409038,18.205282 0 0 1 -1.53192,-24.31638 3.8409038,18.205282 0 0 1 5.08456,-7.94979"
           transform="scale(-1,1)" />
      </g>
      <path
         inkscape:connector-curvature="0"
         id="path98"
         d="m 101.57283,173.67669 c 0.55489,0.10513 1.57304,0.19816 2.26254,0.20673 1.86614,0.0232 8.26835,2.09803 11.23715,3.64174 2.49328,1.29646 9.64947,6.23666 13.85921,9.56756 2.4257,1.91931 4.79065,4.32147 5.88815,5.98082 0.44899,0.67883 0.96518,1.27366 1.14709,1.32183 0.1819,0.0482 0.44789,0.88021 0.5911,1.84896 l 0.26036,1.76137 -1.44641,0.17367 c -1.97697,0.23739 -8.41681,0.0214 -8.94362,-0.29989 -0.23507,-0.14338 -0.6849,-0.9274 -0.99966,-1.74228 -0.91334,-2.36464 -2.85406,-4.80553 -5.43659,-6.83779 -2.16541,-1.70401 -2.55988,-1.90282 -4.0759,-2.05423 -0.92313,-0.0922 -4.16692,-0.54114 -7.20838,-0.99764 -6.63355,-0.99566 -7.90078,-1.00377 -11.397544,-0.0729 -1.480234,0.39404 -3.784502,0.82843 -5.120599,0.96533 -3.792462,0.38858 -4.375831,0.74076 -8.17975,4.93819 -2.637228,2.91005 -4.573705,4.6027 -5.27599,4.61169 -1.242947,0.0159 -2.704273,-2.08795 -2.741647,-3.94713 -0.02543,-1.26525 0.125977,-1.50298 2.883587,-4.52751 1.600735,-1.75568 3.085453,-3.65421 3.29937,-4.21895 0.213924,-0.56475 1.123424,-1.81734 2.021116,-2.78355 1.806707,-1.9446 2.37173,-2.91357 2.686253,-4.60671 0.116195,-0.62554 0.337809,-1.202 0.492461,-1.28102 0.154648,-0.079 2.058182,-0.35269 4.230081,-0.60814 2.171891,-0.25546 4.972639,-0.6499 6.223877,-0.87654 1.251234,-0.22664 2.378445,-0.39917 2.504915,-0.38339 0.12646,0.0158 0.68394,0.1147 1.23883,0.21982 z"
         style="fill:#1a1a1a;stroke-width:0.29921246" />
    </g>
  </g>
</svg>
