<?xml version="1.0" encoding="UTF-8" standalone="no"?>
<!-- Created with Inkscape (http://www.inkscape.org/) -->

<svg
   xmlns:dc="http://purl.org/dc/elements/1.1/"
   xmlns:cc="http://creativecommons.org/ns#"
   xmlns:rdf="http://www.w3.org/1999/02/22-rdf-syntax-ns#"
   xmlns:svg="http://www.w3.org/2000/svg"
   xmlns="http://www.w3.org/2000/svg"
   xmlns:sodipodi="http://sodipodi.sourceforge.net/DTD/sodipodi-0.dtd"
   xmlns:inkscape="http://www.inkscape.org/namespaces/inkscape"
   width="210mm"
   height="297mm"
   viewBox="0 0 210 297"
   version="1.1"
   id="svg8"
   inkscape:version="0.92.4 (5da689c313, 2019-01-14)"
   sodipodi:docname="info-gatos.svg">
  <defs
     id="defs2" />
  <sodipodi:namedview
     id="base"
     pagecolor="#ffffff"
     bordercolor="#666666"
     borderopacity="1.0"
     inkscape:pageopacity="0.0"
     inkscape:pageshadow="2"
     inkscape:zoom="0.49497475"
     inkscape:cx="400"
     inkscape:cy="560"
     inkscape:document-units="mm"
     inkscape:current-layer="layer1"
     showgrid="false"
     inkscape:window-width="1366"
     inkscape:window-height="689"
     inkscape:window-x="0"
     inkscape:window-y="26"
     inkscape:window-maximized="1"
     showguides="false" />
  <metadata
     id="metadata5">
    <rdf:RDF>
      <cc:Work
         rdf:about="">
        <dc:format>image/svg+xml</dc:format>
        <dc:type
           rdf:resource="http://purl.org/dc/dcmitype/StillImage" />
        <dc:title></dc:title>
      </cc:Work>
    </rdf:RDF>
  </metadata>
  <g
     inkscape:label="Capa 1"
     inkscape:groupmode="layer"
     id="layer1">
    <g
       id="g112">
      <g
         id="g70">
        <path
           style="fill:#0000ff;stroke-width:0.3205407"
           id="path10"
           sodipodi:type="arc"
           sodipodi:cx="106.66488"
           sodipodi:cy="130.5656"
           sodipodi:rx="71.815483"
           sodipodi:ry="78.743935"
           sodipodi:start="5.2787308"
           sodipodi:end="4.2339908"
           d="m 145.19738,64.116 a 71.815483,78.743935 0 0 1 29.9651,90.10764 71.815483,78.743935 0 0 1 -71.65444,55.00978 A 71.815483,78.743935 0 0 1 36.536929,147.53563 71.815483,78.743935 0 0 1 73.604063,60.661971 L 106.66488,130.5656 Z" />
        <path
           style="fill:#ccff00;stroke-width:0.33331668"
           id="path31"
           sodipodi:type="arc"
           sodipodi:cx="75.595238"
           sodipodi:cy="140.13988"
           sodipodi:rx="9.0714283"
           sodipodi:ry="18.520834"
           sodipodi:start="5.2787309"
           sodipodi:end="5.1649362"
           d="m 80.462501,124.51071 a 9.0714283,18.520834 0 0 1 2.923188,25.11791 9.0714283,18.520834 0 0 1 -12.214518,6.68023 9.0714283,18.520834 0 0 1 -3.618068,-24.73786 9.0714283,18.520834 0 0 1 12.008687,-8.08757"
           sodipodi:open="true" />
        <path
           style="fill:#ccff00;stroke-width:0.33331668"
           id="path31-3"
           sodipodi:type="arc"
           sodipodi:cx="139.01952"
           sodipodi:cy="140.66901"
           sodipodi:rx="9.0714283"
           sodipodi:ry="18.520834"
           sodipodi:start="5.2787309"
           sodipodi:end="5.1649362"
           d="m 143.88678,125.03984 a 9.0714283,18.520834 0 0 1 2.92319,25.11791 9.0714283,18.520834 0 0 1 -12.21452,6.68023 9.0714283,18.520834 0 0 1 -3.61807,-24.73787 9.0714283,18.520834 0 0 1 12.00869,-8.08756"
           sodipodi:open="true" />
        <path
           style="fill:#1a1a1a;stroke-width:0.25315434"
           id="path48"
           sodipodi:type="arc"
           sodipodi:cx="-76.374992"
           sodipodi:cy="139.85609"
           sodipodi:rx="3.8409038"
           sodipodi:ry="18.205282"
           sodipodi:start="5.2787309"
           sodipodi:end="5.1649354"
           sodipodi:open="true"
           d="m -74.31416,124.49321 a 3.8409038,18.205282 0 0 1 1.237698,24.68995 3.8409038,18.205282 0 0 1 -5.171709,6.56643 3.8409038,18.205282 0 0 1 -1.531917,-24.31638 3.8409038,18.205282 0 0 1 5.084558,-7.94979"
           transform="scale(-1,1)" />
        <path
           style="fill:#1a1a1a;stroke-width:0.25315434"
           id="path48-6"
           sodipodi:type="arc"
           sodipodi:cx="-138.8683"
           sodipodi:cy="140.36707"
           sodipodi:rx="3.8409038"
           sodipodi:ry="18.205282"
           sodipodi:start="5.2787309"
           sodipodi:end="5.1649354"
           sodipodi:open="true"
           d="m -136.80747,125.00419 a 3.8409038,18.205282 0 0 1 1.2377,24.68995 3.8409038,18.205282 0 0 1 -5.17171,6.56642 3.8409038,18.205282 0 0 1 -1.53192,-24.31638 3.8409038,18.205282 0 0 1 5.08456,-7.94979"
           transform="scale(-1,1)" />
      </g>
      <path
         inkscape:connector-curvature="0"
         d="m 78.800644,177.271 c 0.451498,1.25285 1.186916,2.38992 1.91516,3.49828 0.60706,1.18097 1.711513,1.96743 2.490547,3.00462 1.01246,1.22787 2.166493,2.32534 3.382047,3.34912 0.943319,0.82804 1.862505,1.67979 2.747793,2.56956 1.085347,1.1655 2.260298,2.23277 3.500414,3.22964 1.220581,1.02168 2.582148,1.84895 3.921093,2.70182 0.887103,0.64497 1.970865,0.82329 2.945823,1.27063 0.905939,0.33807 1.754909,0.8157 2.661899,1.1472 0.14405,0.0343 0.28573,0.0808 0.43215,0.10295 0.66158,0.0999 0.33396,-0.0141 1.00082,0.0407 0.68873,0.0566 1.3831,0.21313 2.05972,0.34543 0.67402,0.13124 0.80792,0.19815 1.50507,0.16719 0.029,-0.001 0.034,-0.0547 0.0624,-0.0609 0.26904,-0.0584 0.54493,-0.0798 0.81566,-0.12982 0.0724,-0.0134 1.71048,-0.35792 1.77065,-0.37056 1.39543,-0.34376 2.82769,-0.44675 4.24961,-0.61235 0.816,-0.0888 1.6241,-0.20593 2.42844,-0.36821 0.10702,-0.0341 0.37653,-0.1058 0.46715,-0.18841 0.27401,-0.24977 0.3706,-0.74254 0.44831,-1.08097 0.0889,-0.61404 0.17252,-1.22284 0.33103,-1.82326 0.30821,-0.6957 0.66452,-1.3713 1.15217,-1.95778 0.53376,-0.70806 1.08812,-1.40015 1.61617,-2.11247 0.31796,-0.39654 0.55173,-0.84011 0.69575,-1.32594 0.16177,-0.37192 0.21861,-0.77594 0.3356,-1.16107 0.0878,-0.32505 0.34384,-0.55062 0.544,-0.80709 0.1308,-0.1676 0.3821,-0.53585 0.50032,-0.70648 0.58036,-0.84561 1.21509,-1.64978 1.9147,-2.39933 0.52992,-0.65738 0.97184,-1.37761 1.46924,-2.05833 0.46464,-0.5991 0.56788,-1.27718 0.5264,-2.01093 0.006,-0.39302 -0.18421,-0.72133 -0.20213,-1.10788 -0.0207,-0.35314 -0.2136,-0.71212 -0.36344,-1.03136 -0.26868,-0.5583 -0.56816,-1.10966 -0.98443,-1.57242 -0.37159,-0.30759 -0.87344,-0.32701 -1.33428,-0.35318 0.16381,0.0165 0.36215,-0.0526 0.49142,0.0493 0.0815,0.0642 -0.19941,0.061 -0.29189,0.10799 -0.44965,0.2285 -0.82167,0.64528 -1.21429,0.95597 -0.64975,0.49063 -1.0533,1.20629 -1.4682,1.89041 -0.62853,0.75387 -1.26306,1.50503 -1.86037,2.28465 -0.52073,0.70484 -0.97743,1.46401 -1.55574,2.12402 -0.32077,0.40435 -0.65427,0.76155 -1.09949,1.0231 -0.41338,0.36543 -0.56306,0.51921 -1.10647,0.67153 -0.69869,0.28649 -1.44895,0.32726 -2.19104,0.39586 -0.76972,0.0437 -1.51923,0.0907 -2.26743,0.28242 -1.12342,0.34968 -2.22146,0.77895 -3.36535,1.06162 -0.52445,0.0931 -1.04962,0.31672 -1.58879,0.32711 -0.34976,0.007 -0.69963,-0.006 -1.04944,-0.008 -0.87493,-0.13164 -1.7252,-0.40358 -2.59606,-0.57387 -0.82884,-0.1264 -1.66367,-0.21415 -2.48025,-0.40807 -0.993758,-0.2603 -2.011158,-0.40541 -3.003874,-0.66997 -0.856078,-0.26574 -1.755778,-0.3074 -2.636782,-0.43597 -0.697193,-0.0752 -1.34429,-0.29119 -1.866091,-0.76586 -0.492035,-0.56537 -1.09865,-1.0026 -1.60928,-1.55104 -0.695994,-0.71023 -1.327563,-1.48107 -1.878716,-2.30841 -0.344117,-0.84793 -0.875149,-1.59155 -1.31971,-2.38287 -0.437269,-0.83202 -0.565994,-1.76978 -0.811282,-2.66741 -0.103851,-0.39465 -0.357946,-0.7193 -0.511021,-1.09073 -0.186145,-0.21664 -0.490225,-0.28691 -0.756309,-0.35546 -0.05595,-0.0122 -0.225002,-0.0328 -0.167859,-0.0365 0.182832,-0.0116 0.367672,-0.0105 0.54947,0.0122 0.188193,0.0234 -0.377669,0.0352 -0.566406,0.0537 -0.690028,0.0679 -0.432642,0.0329 -1.527297,0.0323 -0.82336,-0.0386 -1.643383,-0.10163 -2.459702,-0.2151 -0.264062,-0.0117 -0.65219,-0.0352 -0.917408,-0.022 -0.114869,0.006 0.428072,-0.0724 0.344958,0.007 -0.0132,0.0126 -0.883187,0.0317 -0.977587,0.0354 -0.456756,0.0218 -0.914006,0.0279 -1.371196,0.0321 -0.307758,-0.0292 -0.531622,0.0723 -0.707744,0.31851 -0.119904,0.36994 -0.06096,0.75955 0.0026,1.13363 0.06555,0.50086 0.182366,0.98889 0.30186,1.47865 0.09348,0.68869 -0.07465,1.39102 -0.03727,2.08868 0.04751,0.64294 0.159295,0.62085 0.625663,1.03274 0.482187,0.36241 0.929807,0.76562 1.412867,1.12678 0.186558,0.11649 0.382286,0.18204 0.599686,0.1914 0,0 -0.789773,0.11883 -0.789773,0.11883 v 0 c -0.219319,-0.0245 -0.417955,-0.11437 -0.60103,-0.23705 -0.477774,-0.36694 -0.926547,-0.76864 -1.406637,-1.13276 -0.485087,-0.41708 -0.587385,-0.44727 -0.630737,-1.09597 -0.03253,-0.69213 0.134011,-1.39015 0.03531,-2.07369 -0.119952,-0.49156 -0.235257,-0.98174 -0.301326,-1.48429 -0.06739,-0.39639 -0.119724,-0.8004 -0.0081,-1.19481 0.171913,-0.26205 0.38963,-0.42937 0.720317,-0.39421 0.458267,-0.003 0.91662,-0.008 1.374484,-0.0292 1.03513,-0.0402 2.07327,-0.0807 3.107886,-0.0121 0.816224,0.11055 1.637104,0.17045 2.460056,0.20497 -0.130768,0.002 -0.289438,0.0875 -0.392303,0.007 -0.09489,-0.0745 0.240512,-0.0197 0.360569,-0.0316 0.577599,-0.0574 1.184463,-0.17366 1.754341,-0.0177 0.28044,0.0818 0.602565,0.16372 0.765646,0.42723 0.156035,0.37162 0.40083,0.7041 0.500099,1.10132 0.240184,0.89236 0.364474,1.8257 0.809133,2.64778 0.450228,0.78682 0.961142,1.53879 1.319935,2.37713 0.55013,0.82254 1.17847,1.58994 1.87279,2.29557 0.518199,0.53988 1.123444,0.97998 1.617874,1.54303 0.530143,0.44878 1.169609,0.64865 1.856457,0.72102 0.882615,0.12175 1.780111,0.18032 2.636501,0.44523 0.993362,0.25803 2.009013,0.40907 3.002298,0.66769 0.81965,0.18208 1.65396,0.27304 2.48241,0.40543 0.86968,0.17551 1.72086,0.4545 2.6007,0.56093 -0.17192,0.005 -0.34407,0.0245 -0.51575,0.0143 -0.0882,-0.005 0.17602,-0.017 0.26355,-0.0293 0.45037,-0.0634 0.89197,-0.17821 1.33266,-0.28747 1.14767,-0.26776 2.24474,-0.702 3.36525,-1.05986 0.77757,-0.21119 1.46601,-0.25666 2.26645,-0.29576 0.7375,-0.0669 1.48984,-0.0908 2.18221,-0.38282 0.19289,-0.053 0.4537,-0.0865 0.62319,-0.20231 0.18065,-0.12345 0.27004,-0.359 0.48014,-0.44918 0.44539,-0.25585 0.7879,-0.58705 1.102,-0.99779 0.58927,-0.64886 1.04158,-1.41275 1.5594,-2.11777 0.59297,-0.77879 1.22789,-1.52651 1.85574,-2.27671 0.42234,-0.68778 0.82192,-1.4182 1.47283,-1.91824 0.34292,-0.26742 1.09443,-1.04736 1.50607,-1.1022 0.35507,-0.0473 0.71534,-0.0392 1.07301,-0.0588 0.47476,0.0332 0.97959,0.0721 1.34384,0.41474 0.40949,0.47584 0.70706,1.03359 0.98221,1.59488 0.1546,0.32782 0.35761,0.69748 0.37004,1.06269 0.0149,0.38286 0.21749,0.71552 0.19714,1.10717 0.0356,0.74924 -0.0628,1.44818 -0.53067,2.06494 -0.50316,0.6812 -0.94987,1.4025 -1.47603,2.06731 -0.70178,0.74338 -1.33341,1.54428 -1.91148,2.38781 -0.0695,0.10098 -0.41765,0.61025 -0.49753,0.7144 -0.19068,0.24861 -0.44439,0.46593 -0.53595,0.77555 -0.12012,0.3837 -0.17235,0.78928 -0.33531,1.16025 -0.14687,0.4943 -0.37656,0.95191 -0.70436,1.35338 -0.53215,0.71054 -1.08871,1.40178 -1.6142,2.11744 -0.49077,0.57129 -0.84395,1.2377 -1.15132,1.92287 -0.15938,0.599 -0.23967,1.20786 -0.33104,1.82025 -0.0733,0.33392 -0.20381,0.8914 -0.44916,1.14949 -0.0853,0.0897 -0.36688,0.17328 -0.47254,0.21044 -0.8084,0.16279 -1.61851,0.28829 -2.43936,0.37309 -1.42474,0.17063 -2.86277,0.25743 -4.26179,0.60364 -1.86192,0.39157 -3.77973,0.86204 -5.67742,0.39615 -0.68183,-0.13039 -1.37386,-0.27618 -2.06753,-0.33022 -0.57601,-0.0449 -0.43343,0.0402 -1.00566,-0.0582 -0.14736,-0.0254 -0.28964,-0.0745 -0.43446,-0.11174 -0.90172,-0.34445 -1.755831,-0.80792 -2.658642,-1.15274 -0.980585,-0.43278 -2.056101,-0.63353 -2.939359,-1.28266 -1.338504,-0.85529 -2.696353,-1.68841 -3.917535,-2.71077 -1.239306,-1.00379 -2.416524,-2.07593 -3.511402,-3.23723 -0.882234,-0.88851 -1.800865,-1.73713 -2.741594,-2.56346 -1.212111,-1.03593 -2.369335,-2.13638 -3.388661,-3.36547 -0.793226,-1.02698 -1.871014,-1.83384 -2.482165,-3.01057 -0.73248,-1.11689 -1.469811,-2.2599 -1.935202,-3.51762 0,0 0.789527,-0.0254 0.789527,-0.0254 z"
         id="path96"
         style="fill:#1a1a1a;stroke-width:0.26458332" />
      <path
         transform="scale(0.26458333)"
         inkscape:connector-curvature="0"
         id="path98"
         d="m 399.69695,749.80197 c -1.66675,-0.42412 -4.73106,-0.82491 -6.80958,-0.89064 -5.62544,-0.17791 -24.80385,-8.32842 -33.66188,-14.30575 -7.43927,-5.01997 -28.71741,-24.03527 -41.20886,-36.82647 -7.19775,-7.37047 -14.18299,-16.56268 -17.39165,-22.88651 -1.31266,-2.58707 -2.83303,-4.85991 -3.37861,-5.05076 -0.54557,-0.19085 -1.29718,-3.34799 -1.67024,-7.01587 l -0.67829,-6.66887 4.3718,-0.58638 c 5.9754,-0.80147 25.37992,0.326 26.94892,1.56583 0.70009,0.55321 2.00896,3.53784 2.9086,6.63251 2.61063,8.98024 8.31437,18.29833 15.97815,26.10322 6.42593,6.54424 7.60329,7.31463 12.16524,7.96013 2.77792,0.39307 12.53145,2.24652 21.67452,4.11876 19.94136,4.08344 23.76189,4.17537 34.36186,0.82684 4.48714,-1.41749 11.46138,-2.94766 15.49832,-3.40038 11.45872,-1.28505 13.23906,-2.58775 24.96319,-18.26604 8.12825,-10.86964 14.06978,-17.17259 16.18788,-17.17259 3.74874,0 8.02746,8.02123 8.02746,15.04893 0,4.78269 -0.47095,5.67376 -8.96912,16.97022 -4.93301,6.55737 -9.52486,13.66018 -10.2041,15.78402 -0.67926,2.12385 -3.49754,6.81347 -6.26286,10.42139 -5.56551,7.26134 -7.32792,10.89579 -8.37891,17.27905 -0.38829,2.35832 -1.09143,4.52607 -1.56253,4.81722 -0.47109,0.29115 -6.22728,1.23328 -12.79155,2.09361 -6.56425,0.86034 -15.03307,2.21549 -18.81958,3.01146 -3.78651,0.79597 -7.19577,1.39344 -7.57615,1.3277 -0.38036,-0.0657 -2.05527,-0.46652 -3.72203,-0.89063 z"
         style="fill:#1a1a1a;stroke-width:1.01015258" />
    </g>
  </g>
</svg>
